<svg width="313.11" height="61.022" viewBox="0 0 313.11 61.022" xmlns="http://www.w3.org/2000/svg"><g id="svgGroup" stroke-linecap="round" fill-rule="nonzero" font-size="9pt" stroke="#000" stroke-width="0" fill="#182838" style="stroke:#000;stroke-width:0;fill:#182838"><path d="M 171.63 59.941 L 161.64 59.941 L 161.64 1.081 L 172.62 1.081 L 188.19 34.111 L 193.5 46.711 L 193.77 46.711 A 174.844 174.844 0 0 0 193.421 42.008 A 225.481 225.481 0 0 0 192.915 36.901 Q 192.33 31.591 192.33 26.641 L 192.33 1.081 L 202.32 1.081 L 202.32 59.941 L 191.34 59.941 L 175.77 26.821 L 170.46 14.311 L 170.19 14.311 A 171.736 171.736 0 0 0 170.71 20.98 A 200.908 200.908 0 0 0 171.045 24.166 Q 171.63 29.341 171.63 34.201 L 171.63 59.941 Z M 256.68 7.381 L 250.92 13.861 Q 248.94 11.701 246.375 10.396 A 11.266 11.266 0 0 0 243.605 9.438 Q 241.979 9.091 240.03 9.091 A 14.473 14.473 0 0 0 234.602 10.093 A 13.632 13.632 0 0 0 231.75 11.656 A 15.481 15.481 0 0 0 227.623 16.098 A 20.455 20.455 0 0 0 226.125 18.991 A 24.162 24.162 0 0 0 224.608 24.222 Q 224.1 27.084 224.1 30.421 Q 224.1 36.487 225.631 41.06 A 23.491 23.491 0 0 0 225.945 41.941 A 18.373 18.373 0 0 0 227.936 45.814 A 14.062 14.062 0 0 0 231.39 49.366 A 13.622 13.622 0 0 0 237.032 51.668 A 18.446 18.446 0 0 0 240.21 51.931 Q 242.55 51.931 244.71 51.256 A 10.347 10.347 0 0 0 246.316 50.611 Q 247.215 50.154 247.888 49.549 A 6.161 6.161 0 0 0 248.13 49.321 L 248.13 36.631 L 237.96 36.631 L 237.96 28.081 L 257.58 28.081 L 257.58 54.001 A 20.572 20.572 0 0 1 254.239 56.678 Q 252.575 57.761 250.558 58.689 A 35.026 35.026 0 0 1 249.975 58.951 A 24.887 24.887 0 0 1 241.716 60.945 A 29.663 29.663 0 0 1 239.58 61.021 A 26.693 26.693 0 0 1 229.892 59.285 A 25.138 25.138 0 0 1 226.215 57.511 A 23.834 23.834 0 0 1 217.909 49.249 A 29.537 29.537 0 0 1 216.765 47.206 Q 213.516 40.835 213.314 31.893 A 53.021 53.021 0 0 1 213.3 30.691 Q 213.3 21.404 216.564 14.67 A 27.475 27.475 0 0 1 216.81 14.176 Q 220.32 7.291 226.35 3.646 A 25.439 25.439 0 0 1 238.143 0.058 A 30.901 30.901 0 0 1 240.03 0.001 Q 245.554 0.001 249.514 2.047 A 15.53 15.53 0 0 1 249.975 2.296 A 32.562 32.562 0 0 1 253.488 4.556 A 23.791 23.791 0 0 1 256.68 7.381 Z M 113.4 59.941 L 102.78 59.941 L 121.86 1.081 L 134.1 1.081 L 153.18 59.941 L 142.11 59.941 L 133.2 28.621 A 849.687 849.687 0 0 0 130.719 19.608 A 928.593 928.593 0 0 0 130.545 18.991 Q 129.15 14.041 127.98 9.181 L 127.62 9.181 Q 126.36 14.041 125.055 18.991 Q 123.75 23.941 122.4 28.621 L 113.4 59.941 Z M 53.28 51.301 L 59.4 44.821 A 22.845 22.845 0 0 0 61.945 47.725 A 16.816 16.816 0 0 0 65.115 50.131 Q 68.22 51.931 71.37 51.931 A 16.376 16.376 0 0 0 74.33 51.681 Q 75.988 51.376 77.279 50.698 A 7.685 7.685 0 0 0 79.38 49.096 Q 81.826 46.438 81.98 40.42 A 32.193 32.193 0 0 0 81.99 39.601 L 81.99 9.811 L 58.14 9.811 L 58.14 1.081 L 92.43 1.081 L 92.43 40.501 A 28.097 28.097 0 0 1 91.75 46.79 A 23.637 23.637 0 0 1 90.45 50.806 Q 88.47 55.441 83.97 58.231 A 16.498 16.498 0 0 1 79.673 60.063 Q 77.627 60.632 75.179 60.863 A 37.716 37.716 0 0 1 71.64 61.021 A 22.835 22.835 0 0 1 64.639 59.884 A 28.351 28.351 0 0 1 61.74 58.771 A 18.79 18.79 0 0 1 54.972 53.584 A 23.971 23.971 0 0 1 53.28 51.301 Z M 16.02 59.941 L 0 59.941 L 0 1.081 L 15.48 1.081 Q 24.12 1.081 30.375 4.321 Q 36.63 7.561 39.915 14.041 Q 42.763 19.659 43.142 27.714 A 53.825 53.825 0 0 1 43.2 30.241 A 48.842 48.842 0 0 1 42.738 37.149 Q 42.197 40.933 41.021 44.101 A 26.478 26.478 0 0 1 39.915 46.666 Q 36.63 53.281 30.51 56.611 A 26.823 26.823 0 0 1 22.216 59.433 A 36.198 36.198 0 0 1 16.02 59.941 Z M 10.44 9.541 L 10.44 51.481 L 14.85 51.481 A 23.354 23.354 0 0 0 19.167 51.102 Q 21.835 50.6 23.994 49.434 A 14.466 14.466 0 0 0 24.435 49.186 A 14.017 14.017 0 0 0 29.426 44.144 A 18.092 18.092 0 0 0 30.42 42.211 Q 32.029 38.573 32.387 33.358 A 45.517 45.517 0 0 0 32.49 30.241 A 41.459 41.459 0 0 0 32.245 25.599 Q 31.972 23.176 31.392 21.138 A 19.526 19.526 0 0 0 30.42 18.451 A 15.802 15.802 0 0 0 28.074 14.682 A 12.965 12.965 0 0 0 24.435 11.701 Q 20.749 9.667 15.508 9.548 A 28.972 28.972 0 0 0 14.85 9.541 L 10.44 9.541 Z M 282.613 59.818 A 19.871 19.871 0 0 1 277.92 57.421 A 21.662 21.662 0 0 1 271.942 51.121 A 28.712 28.712 0 0 1 269.775 46.981 Q 267.241 41.056 266.902 32.835 A 62.982 62.982 0 0 1 266.85 30.241 A 53.06 53.06 0 0 1 267.333 22.884 Q 267.884 18.951 269.065 15.629 A 29.912 29.912 0 0 1 269.775 13.816 Q 272.7 7.021 277.92 3.511 Q 283.14 0.001 289.98 0.001 A 22.595 22.595 0 0 1 297.162 1.111 A 20.065 20.065 0 0 1 302.04 3.511 Q 307.26 7.021 310.185 13.816 Q 313.11 20.611 313.11 30.241 A 55.719 55.719 0 0 1 312.646 37.644 Q 311.945 42.866 310.185 46.981 A 27.447 27.447 0 0 1 307.063 52.514 A 21.163 21.163 0 0 1 302.04 57.421 A 20.43 20.43 0 0 1 291.248 60.989 A 25.163 25.163 0 0 1 289.98 61.021 A 22.005 22.005 0 0 1 282.613 59.818 Z M 289.98 51.931 Q 293.76 51.931 296.55 49.411 A 12.802 12.802 0 0 0 298.889 46.534 Q 300.057 44.613 300.87 42.031 Q 302.129 38.031 302.352 32.629 A 57.96 57.96 0 0 0 302.4 30.241 Q 302.4 24.76 301.391 20.614 A 25.8 25.8 0 0 0 300.87 18.766 A 21.436 21.436 0 0 0 299.545 15.538 Q 298.665 13.833 297.542 12.562 A 11.578 11.578 0 0 0 296.55 11.566 Q 293.76 9.091 289.98 9.091 Q 286.2 9.091 283.41 11.566 A 12.792 12.792 0 0 0 281.003 14.491 Q 280.16 15.87 279.505 17.585 A 24.362 24.362 0 0 0 279.09 18.766 Q 277.803 22.741 277.599 28.149 A 55.43 55.43 0 0 0 277.56 30.241 Q 277.56 37.171 279.09 42.031 A 22.346 22.346 0 0 0 280.383 45.284 Q 281.644 47.816 283.41 49.411 Q 286.2 51.931 289.98 51.931 Z M 141.66 44.011 L 114.03 44.011 L 114.03 35.821 L 141.66 35.821 L 141.66 44.011 Z" vector-effect="non-scaling-stroke"/></g></svg>