<svg width="181.44" height="75.938" viewBox="0 0 181.44 75.938" xmlns="http://www.w3.org/2000/svg"><g id="svgGroup" stroke-linecap="round" fill-rule="nonzero" font-size="9pt" stroke="#000" stroke-width="0" fill="#8be9fd" style="stroke:#000;stroke-width:0;fill:#8be9fd"><path d="M 180.32 9.185 L 173.152 17.249 Q 170.688 14.561 167.496 12.937 A 14.02 14.02 0 0 0 164.049 11.745 Q 162.026 11.313 159.6 11.313 Q 153.776 11.313 149.296 14.505 Q 144.816 17.697 142.296 23.633 Q 139.776 29.569 139.776 37.857 Q 139.776 45.406 141.681 51.097 A 29.233 29.233 0 0 0 142.072 52.193 A 22.864 22.864 0 0 0 144.55 57.013 A 17.499 17.499 0 0 0 148.848 61.433 A 16.952 16.952 0 0 0 155.869 64.297 A 22.955 22.955 0 0 0 159.824 64.625 Q 162.736 64.625 165.424 63.785 A 12.876 12.876 0 0 0 167.423 62.982 Q 168.749 62.308 169.68 61.377 L 169.68 45.585 L 157.024 45.585 L 157.024 34.945 L 181.44 34.945 L 181.44 67.201 Q 178.08 70.561 172.702 73.035 A 43.587 43.587 0 0 1 171.976 73.361 A 30.971 30.971 0 0 1 161.698 75.843 A 36.914 36.914 0 0 1 159.04 75.937 A 33.218 33.218 0 0 1 146.983 73.777 A 31.283 31.283 0 0 1 142.408 71.569 A 29.66 29.66 0 0 1 132.072 61.288 A 36.757 36.757 0 0 1 130.648 58.745 A 37.632 37.632 0 0 1 127.348 49.057 Q 126.466 44.697 126.353 39.689 A 65.982 65.982 0 0 1 126.336 38.193 A 55.032 55.032 0 0 1 127.142 28.525 Q 128.146 22.902 130.398 18.256 A 34.192 34.192 0 0 1 130.704 17.641 A 34.069 34.069 0 0 1 136.61 9.278 A 29.818 29.818 0 0 1 142.576 4.537 Q 150.08 0.001 159.6 0.001 A 31.104 31.104 0 0 1 165.155 0.472 Q 168.95 1.161 171.976 2.857 A 40.521 40.521 0 0 1 176.347 5.67 A 29.607 29.607 0 0 1 180.32 9.185 Z M 47.264 74.593 L 0 74.593 L 0 1.345 L 12.88 1.345 L 12.88 63.617 L 47.264 63.617 L 47.264 74.593 Z M 78.192 74.44 A 24.728 24.728 0 0 1 72.352 71.457 Q 65.856 66.977 62.216 58.465 A 42.106 42.106 0 0 1 59.618 49.729 Q 58.576 44.226 58.576 37.633 Q 58.576 27.205 61.332 19.449 A 37.224 37.224 0 0 1 62.216 17.193 A 33.423 33.423 0 0 1 66.101 10.369 A 25.654 25.654 0 0 1 72.352 4.369 Q 78.848 0.001 87.36 0.001 A 28.119 28.119 0 0 1 96.298 1.383 A 24.97 24.97 0 0 1 102.368 4.369 A 26.266 26.266 0 0 1 109.808 12.084 A 34.999 34.999 0 0 1 112.504 17.193 A 42.076 42.076 0 0 1 115.176 26.212 Q 116.144 31.454 116.144 37.633 A 69.339 69.339 0 0 1 115.566 46.846 Q 114.939 51.517 113.632 55.476 A 37.55 37.55 0 0 1 112.504 58.465 A 34.156 34.156 0 0 1 108.619 65.351 A 26.336 26.336 0 0 1 102.368 71.457 Q 95.872 75.937 87.36 75.937 A 27.384 27.384 0 0 1 78.192 74.44 Z M 87.36 64.625 Q 92.064 64.625 95.536 61.489 Q 98.489 58.821 100.308 54.047 A 31.274 31.274 0 0 0 100.912 52.305 Q 102.479 47.327 102.756 40.605 A 72.128 72.128 0 0 0 102.816 37.633 A 61.803 61.803 0 0 0 102.514 31.339 Q 102.057 26.89 100.912 23.353 Q 99.008 17.473 95.536 14.393 Q 92.064 11.313 87.36 11.313 Q 82.656 11.313 79.184 14.393 A 15.918 15.918 0 0 0 76.188 18.034 Q 75.139 19.749 74.325 21.884 A 30.316 30.316 0 0 0 73.808 23.353 A 35.953 35.953 0 0 0 72.511 28.953 Q 72.075 31.784 71.952 35.029 A 68.979 68.979 0 0 0 71.904 37.633 Q 71.904 44.404 73.078 49.587 A 34.218 34.218 0 0 0 73.808 52.305 Q 75.298 57.037 77.748 59.987 A 14.526 14.526 0 0 0 79.184 61.489 Q 82.656 64.625 87.36 64.625 Z" vector-effect="non-scaling-stroke"/></g></svg>