<svg width="249.088" height="75.936" viewBox="0 0 249.088 75.936" xmlns="http://www.w3.org/2000/svg"><g id="svgGroup" stroke-linecap="round" fill-rule="nonzero" font-size="9pt" stroke="#000" stroke-width="0" fill="#8be9fd" style="stroke:#000;stroke-width:0;fill:#8be9fd"><path d="M 141.68 74.592 L 129.248 74.592 L 129.248 1.344 L 142.912 1.344 L 162.288 42.448 L 168.896 58.128 L 169.232 58.128 Q 168.896 52.528 168.168 45.92 A 119.175 119.175 0 0 1 167.466 35.478 A 106.413 106.413 0 0 1 167.44 33.152 L 167.44 1.344 L 179.872 1.344 L 179.872 74.592 L 166.208 74.592 L 146.832 33.376 L 140.224 17.808 L 139.888 17.808 A 213.716 213.716 0 0 0 140.535 26.107 A 250.018 250.018 0 0 0 140.952 30.072 A 112.69 112.69 0 0 1 141.668 40.994 A 101.763 101.763 0 0 1 141.68 42.56 L 141.68 74.592 Z M 113.344 74.592 L 65.296 74.592 L 65.296 1.344 L 112.224 1.344 L 112.224 12.32 L 78.288 12.32 L 78.288 31.024 L 107.072 31.024 L 107.072 42 L 78.288 42 L 78.288 63.616 L 113.344 63.616 L 113.344 74.592 Z M 194.656 65.184 L 202.272 56.336 Q 206.416 60.032 211.68 62.328 Q 216.944 64.624 222.768 64.624 A 25.923 25.923 0 0 0 226.42 64.384 Q 230.189 63.847 232.512 62.104 A 9.237 9.237 0 0 0 234.526 60.08 A 7.248 7.248 0 0 0 235.872 55.776 Q 235.872 53.065 234.779 51.251 A 6.275 6.275 0 0 0 234.304 50.568 Q 232.736 48.608 229.992 47.264 A 70.825 70.825 0 0 0 227.409 46.067 Q 226.075 45.479 224.573 44.872 A 122.717 122.717 0 0 0 223.552 44.464 L 213.584 40.096 A 41.027 41.027 0 0 1 206.82 36.518 A 45.686 45.686 0 0 1 206.136 36.064 Q 202.496 33.6 200.2 29.792 A 15.617 15.617 0 0 1 198.254 24.569 A 21.393 21.393 0 0 1 197.904 20.608 Q 197.904 14.784 201.152 10.136 Q 204.4 5.488 210.168 2.744 A 28.141 28.141 0 0 1 218.652 0.296 A 35.915 35.915 0 0 1 223.328 0 Q 230.048 0 236.152 2.52 A 35.577 35.577 0 0 1 246.56 9.032 A 34.058 34.058 0 0 1 246.848 9.296 L 240.128 17.584 Q 236.432 14.56 232.344 12.936 Q 228.256 11.312 222.656 11.312 A 19.387 19.387 0 0 0 219.094 11.621 Q 216.299 12.143 214.256 13.552 A 7.129 7.129 0 0 0 211.087 18.688 A 9.541 9.541 0 0 0 211.008 19.936 A 7.163 7.163 0 0 0 211.327 22.119 A 5.891 5.891 0 0 0 212.8 24.528 A 13.965 13.965 0 0 0 214.968 26.281 Q 216.017 26.977 217.279 27.584 A 22.956 22.956 0 0 0 217.448 27.664 A 82.795 82.795 0 0 0 221.94 29.612 A 95.549 95.549 0 0 0 223.552 30.24 L 233.184 34.384 A 39.303 39.303 0 0 1 238.375 36.789 A 32.304 32.304 0 0 1 241.472 38.752 Q 245.056 41.328 247.072 45.08 A 16.202 16.202 0 0 1 248.645 49.525 Q 249.088 51.688 249.088 54.208 Q 249.088 60.144 245.84 65.072 A 21.578 21.578 0 0 1 239.725 71.144 A 27.496 27.496 0 0 1 236.544 72.968 Q 230.763 75.805 222.73 75.93 A 47.899 47.899 0 0 1 221.984 75.936 Q 214.256 75.936 207.2 73.136 Q 200.144 70.336 194.656 65.184 Z M 47.264 74.592 L 0 74.592 L 0 1.344 L 12.88 1.344 L 12.88 63.616 L 47.264 63.616 L 47.264 74.592 Z" vector-effect="non-scaling-stroke"/></g></svg>